<?xml version="1.0" encoding="UTF-8" standalone="no"?>
<!-- Created with Inkscape (http://www.inkscape.org/) -->

<svg
   width="655.63751mm"
   height="927.09998mm"
   viewBox="0 0 655.63751 927.09998"
   version="1.1"
   id="svg1"
   xml:space="preserve"
   xmlns:xlink="http://www.w3.org/1999/xlink"
   xmlns="http://www.w3.org/2000/svg"
   xmlns:svg="http://www.w3.org/2000/svg"><defs
     id="defs1"><linearGradient
       id="linearGradient41"><stop
         style="stop-color:#225b0e;stop-opacity:1;"
         offset="0"
         id="stop40" /><stop
         style="stop-color:#54921d;stop-opacity:1;"
         offset="1"
         id="stop41" /></linearGradient><linearGradient
       id="linearGradient4"><stop
         style="stop-color:#4b9713;stop-opacity:1;"
         offset="0.42945781"
         id="stop4" /><stop
         style="stop-color:#a3e726;stop-opacity:1;"
         offset="1"
         id="stop5" /></linearGradient><linearGradient
       id="linearGradient2"><stop
         style="stop-color:#1ba6fb;stop-opacity:1;"
         offset="0"
         id="stop2" /><stop
         style="stop-color:#abfbee;stop-opacity:1;"
         offset="1"
         id="stop3" /></linearGradient><linearGradient
       xlink:href="#linearGradient2"
       id="linearGradient3"
       x1="268.50638"
       y1="650.80847"
       x2="274.09879"
       y2="57.470139"
       gradientUnits="userSpaceOnUse" /><linearGradient
       xlink:href="#linearGradient41"
       id="linearGradient5"
       x1="601.39777"
       y1="685.7934"
       x2="425.06436"
       y2="135.37854"
       gradientUnits="userSpaceOnUse" /><clipPath
       clipPathUnits="userSpaceOnUse"
       id="clipPath27"><path
         style="display:inline;opacity:0.219;fill:#000000;stroke-width:0.264583"
         d="M 5.1783472,632.84412 C -0.24803119,429.94199 135.56628,380.18289 328.74151,503.80305 l 117.69103,87.48691 c 239.56939,52.6265 165.48513,-170.8831 134.93811,-260.29849 l 98.16211,4.43178 0.66818,622.06981 -697.573459,0.6682 z"
         id="path27" /></clipPath><clipPath
       clipPathUnits="userSpaceOnUse"
       id="clipPath28"><path
         style="display:inline;opacity:0.219;fill:#000000;stroke-width:0.264583"
         d="M 5.1783472,632.84412 C -0.24803119,429.94199 135.56628,380.18289 328.74151,503.80305 l 117.69103,87.48691 c 239.56939,52.6265 165.48513,-170.8831 134.93811,-260.29849 l 98.16211,4.43178 0.66818,622.06981 -697.573459,0.6682 z"
         id="path28" /></clipPath><filter
       style="color-interpolation-filters:sRGB;"
       id="filter39"
       x="0"
       y="0"
       width="1"
       height="1"><feColorMatrix
         values="2.03627 -0.5 -0.5 0 -0.187179 -0.5 2.03627 -0.5 0 -0.187179 -0.5 -0.5 2.03627 0 -0.187179 0 0 0 1 0 "
         id="feColorMatrix39" /></filter><filter
       style="color-interpolation-filters:sRGB;"
       id="filter40"
       x="0"
       y="0"
       width="1"
       height="1"><feColorMatrix
         values="2.03627 -0.5 -0.5 0 -0.187179 -0.5 2.03627 -0.5 0 -0.187179 -0.5 -0.5 2.03627 0 -0.187179 0 0 0 1 0 "
         id="feColorMatrix40" /></filter><linearGradient
       xlink:href="#linearGradient4"
       id="linearGradient40"
       gradientUnits="userSpaceOnUse"
       x1="547.51624"
       y1="842.94781"
       x2="311.31445"
       y2="-113.07523" /></defs><g
     id="layer2"
     style="display:inline;opacity:1"><path
       style="fill:url(#linearGradient40);stroke-width:0.264583"
       d="m 344.99999,0 c 138.8121,168.46773 316.33929,402.67858 310.6375,571.49999 -9.24463,98.0023 -14.10275,195.69128 -160.63751,303.50002 C 524.34393,699.80913 487.05007,640.40894 378.59469,487.77408 245.56851,317.84369 270.20504,157.41105 344.99999,0 Z"
       id="path2" /><path
       style="fill:url(#linearGradient3);stroke-width:0.264583"
       d="M 269.99999,47.113636 C 160.76798,184.0535 -4.7379952,422.83676 -1.2255859e-6,565.02 3.0973191,806.77947 214.17559,992.59076 436.96211,907.44318 499.3822,739.5829 433.11677,638.30579 330,505.00002 181.82583,284.19933 246.88525,147.70067 269.99999,47.113636 Z"
       id="path1" /><path
       style="fill:url(#linearGradient3);stroke-width:0.264583;filter:url(#filter39)"
       d="M 269.99999,47.113636 C 160.76798,184.0535 -4.7379952,422.83676 -1.2255859e-6,565.02 3.0973191,806.77947 214.17559,992.59076 436.96211,907.44318 499.3822,739.5829 433.11677,638.30579 330,505.00002 181.82583,284.19933 246.88525,147.70067 269.99999,47.113636 Z"
       id="path23"
       clip-path="url(#clipPath28)" /><path
       style="fill:url(#linearGradient5);stroke-width:0.264583;filter:url(#filter40)"
       d="m 344.99999,0 c 138.8121,168.46773 316.33929,402.67858 310.6375,571.49999 -9.24463,98.0023 -14.10275,195.69128 -160.63751,303.50002 C 524.34393,699.80913 487.05007,640.40894 378.59469,487.77408 245.56851,317.84369 270.20504,157.41105 344.99999,0 Z"
       id="path24"
       clip-path="url(#clipPath27)" /></g></svg>
